# Blender 4.4.3
# www.blender.org
mtllib new.mtl
o tiled_room
v -1.000000 -1.000000 -0.100000
v -1.000000 -1.000000 0.000000
v -1.000000 1.000000 -0.100000
v -1.000000 1.000000 -0.000000
v 1.000000 -1.000000 -0.100000
v 1.000000 -1.000000 0.000000
v 1.000000 1.000000 -0.100000
v 1.000000 1.000000 -0.000000
v -1.000000 -1.000000 0.000000
v -1.000000 -1.000000 2.000000
v -1.000000 -0.900000 0.000000
v -1.000000 -0.900000 2.000000
v 1.000000 -1.000000 0.000000
v 1.000000 -1.000000 2.000000
v 1.000000 -0.900000 0.000000
v 1.000000 -0.900000 2.000000
v -1.000000 -1.000000 0.000000
v -1.000000 -1.000000 2.000000
v -1.000000 1.000000 -0.000000
v -1.000000 1.000000 2.000000
v -0.900000 -1.000000 0.000000
v -0.900000 -1.000000 2.000000
v -0.900000 1.000000 -0.000000
v -0.900000 1.000000 2.000000
v 0.900000 -1.000000 0.000000
v 0.900000 -1.000000 2.000000
v 0.900000 1.000000 -0.000000
v 0.900000 1.000000 2.000000
v 1.000000 -1.000000 0.000000
v 1.000000 -1.000000 2.000000
v 1.000000 1.000000 -0.000000
v 1.000000 1.000000 2.000000
vn -1.0000 -0.0000 -0.0000
vn -0.0000 -1.0000 -0.0000
vn -0.0000 -0.0000 -1.0000
vn -0.0000 -0.0000 1.0000
vn -0.0000 1.0000 -0.0000
vn 1.0000 -0.0000 -0.0000
s 0
usemtl 매테리얼
f 2//1 4//1 1//1
f 5//2 2//2 1//2
f 1//1 4//1 3//1
f 3//3 5//3 1//3
f 2//4 8//4 4//4
f 6//2 2//2 5//2
f 6//4 8//4 2//4
f 4//5 8//5 3//5
f 7//3 5//3 3//3
f 3//5 8//5 7//5
f 7//6 6//6 5//6
f 8//6 6//6 7//6
f 10//1 12//1 9//1
f 13//2 10//2 9//2
f 9//1 12//1 11//1
f 11//3 13//3 9//3
f 10//4 16//4 12//4
f 14//2 10//2 13//2
f 14//4 16//4 10//4
f 12//5 16//5 11//5
f 15//3 13//3 11//3
f 11//5 16//5 15//5
f 15//6 14//6 13//6
f 16//6 14//6 15//6
f 18//1 20//1 17//1
f 21//2 18//2 17//2
f 17//1 20//1 19//1
f 19//3 21//3 17//3
f 18//4 24//4 20//4
f 22//2 18//2 21//2
f 22//4 24//4 18//4
f 20//5 24//5 19//5
f 23//3 21//3 19//3
f 19//5 24//5 23//5
f 23//6 22//6 21//6
f 24//6 22//6 23//6
f 26//1 28//1 25//1
f 29//2 26//2 25//2
f 25//1 28//1 27//1
f 27//3 29//3 25//3
f 26//4 32//4 28//4
f 30//2 26//2 29//2
f 30//4 32//4 26//4
f 28//5 32//5 27//5
f 31//3 29//3 27//3
f 27//5 32//5 31//5
f 31//6 30//6 29//6
f 32//6 30//6 31//6
